<svg width="25" height="25" viewBox="0 0 25 25" fill="none" xmlns="http://www.w3.org/2000/svg">
<path fill-rule="evenodd" clip-rule="evenodd" d="M22.5 13.184V15.316C22.5 16.202 22.5 16.966 22.418 17.578C22.33 18.233 22.131 18.862 21.621 19.371C21.111 19.881 20.483 20.08 19.828 20.168C19.216 20.25 18.452 20.25 17.566 20.25H11.434C10.548 20.25 9.784 20.25 9.172 20.168C8.517 20.08 7.888 19.881 7.379 19.371C6.869 18.861 6.67 18.233 6.582 17.578C6.5 16.966 6.5 16.202 6.5 15.316V13.184C6.5 12.298 6.5 11.534 6.582 10.922C6.67 10.267 6.869 9.638 7.379 9.129C7.889 8.619 8.517 8.42 9.172 8.332C9.784 8.25 10.548 8.25 11.434 8.25H17.566C18.452 8.25 19.216 8.25 19.828 8.332C20.483 8.42 21.112 8.619 21.621 9.129C22.131 9.639 22.33 10.267 22.418 10.922C22.5 11.534 22.5 12.298 22.5 13.184ZM11.5 14.25C11.5 13.856 11.5776 13.4659 11.7284 13.1019C11.8791 12.738 12.1001 12.4073 12.3787 12.1287C12.6573 11.8501 12.988 11.6291 13.3519 11.4784C13.7159 11.3276 14.106 11.25 14.5 11.25C14.894 11.25 15.2841 11.3276 15.6481 11.4784C16.012 11.6291 16.3427 11.8501 16.6213 12.1287C16.8999 12.4073 17.1209 12.738 17.2716 13.1019C17.4224 13.4659 17.5 13.856 17.5 14.25C17.5 15.0456 17.1839 15.8087 16.6213 16.3713C16.0587 16.9339 15.2956 17.25 14.5 17.25C13.7044 17.25 12.9413 16.9339 12.3787 16.3713C11.8161 15.8087 11.5 15.0456 11.5 14.25Z" fill="white" fill-opacity="0.5"/>
<path fill-rule="evenodd" clip-rule="evenodd" d="M18.497 7.254C18.21 7.25 17.917 7.25 17.619 7.25H11.38C10.537 7.25 9.71699 7.25 9.03799 7.341C8.27199 7.444 7.39799 7.695 6.67099 8.421C5.94399 9.148 5.69299 10.023 5.59099 10.789C5.49999 11.468 5.49999 12.287 5.49999 13.131V15.369C5.49999 15.662 5.49999 15.952 5.50399 16.234C5.44127 16.2312 5.3786 16.2275 5.31599 16.223C4.94299 16.193 4.57099 16.13 4.20899 15.958C3.58803 15.6618 3.08775 15.1612 2.79199 14.54C2.61999 14.18 2.55599 13.807 2.52699 13.434C2.5027 13.0078 2.4937 12.5809 2.49999 12.154V9.184C2.49999 8.298 2.49999 7.534 2.58199 6.922C2.66999 6.267 2.86899 5.638 3.37899 5.129C3.88899 4.619 4.51699 4.42 5.17199 4.332C5.78399 4.25 6.54799 4.25 7.43399 4.25H15.039C15.461 4.25 15.824 4.25 16.148 4.32C16.7061 4.44354 17.2173 4.72396 17.6214 5.12824C18.0255 5.53252 18.3057 6.04384 18.429 6.602C18.474 6.802 18.49 7.018 18.497 7.254Z" fill="white" fill-opacity="0.5"/>
</svg>
