<svg width="24" height="25" viewBox="0 0 24 25" fill="none" xmlns="http://www.w3.org/2000/svg">
<path fill-rule="evenodd" clip-rule="evenodd" d="M5 2.25C4.20435 2.25 3.44129 2.56607 2.87868 3.12868C2.31607 3.69129 2 4.45435 2 5.25V19.25C2 20.0456 2.31607 20.8087 2.87868 21.3713C3.44129 21.9339 4.20435 22.25 5 22.25H17C17.7956 22.25 18.5587 21.9339 19.1213 21.3713C19.6839 20.8087 20 20.0456 20 19.25V5.25C20 4.45435 19.6839 3.69129 19.1213 3.12868C18.5587 2.56607 17.7956 2.25 17 2.25H5ZM11 8.25C9.93913 8.25 8.92172 8.67143 8.17157 9.42157C7.42143 10.1717 7 11.1891 7 12.25C7 13.3109 7.42143 14.3283 8.17157 15.0784C8.92172 15.8286 9.93913 16.25 11 16.25C12.0609 16.25 13.0783 15.8286 13.8284 15.0784C14.5786 14.3283 15 13.3109 15 12.25C15 11.1891 14.5786 10.1717 13.8284 9.42157C13.0783 8.67143 12.0609 8.25 11 8.25ZM8.346 19.932C8.733 19.517 9.424 19.25 11 19.25C12.615 19.25 13.3 19.511 13.68 19.925C13.8616 20.11 14.1079 20.2172 14.367 20.224C14.6261 20.2309 14.8778 20.1369 15.069 19.9618C15.2601 19.7868 15.3758 19.5443 15.3917 19.2856C15.4075 19.0269 15.3223 18.7721 15.154 18.575C14.161 17.49 12.692 17.25 11 17.25C9.319 17.25 7.872 17.507 6.883 18.568C6.79344 18.6641 6.72367 18.7768 6.67769 18.8998C6.63171 19.0229 6.61041 19.1537 6.615 19.285C6.6196 19.4163 6.65001 19.5453 6.70448 19.6648C6.75896 19.7843 6.83644 19.8919 6.9325 19.9815C7.02856 20.0711 7.14132 20.1408 7.26435 20.1868C7.38737 20.2328 7.51825 20.2541 7.6495 20.2495C7.78076 20.2449 7.90982 20.2145 8.02933 20.16C8.14883 20.1055 8.25644 20.0281 8.346 19.932Z" fill="white" fill-opacity="0.5"/>
<path fill-rule="evenodd" clip-rule="evenodd" d="M9 12.25C9 11.7196 9.21071 11.2109 9.58579 10.8358C9.96086 10.4607 10.4696 10.25 11 10.25C11.5304 10.25 12.0391 10.4607 12.4142 10.8358C12.7893 11.2109 13 11.7196 13 12.25C13 12.7804 12.7893 13.2891 12.4142 13.6642C12.0391 14.0393 11.5304 14.25 11 14.25C10.4696 14.25 9.96086 14.0393 9.58579 13.6642C9.21071 13.2891 9 12.7804 9 12.25ZM19.646 22.25H20C20.7956 22.25 21.5587 21.9339 22.1213 21.3713C22.6839 20.8087 23 20.0456 23 19.25V5.25C23 4.45435 22.6839 3.69129 22.1213 3.12868C21.5587 2.56607 20.7956 2.25 20 2.25H19.646C20.0721 2.62498 20.4133 3.08654 20.6468 3.60388C20.8802 4.12122 21.0007 4.68241 21 5.25V19.25C21.0007 19.8176 20.8802 20.3788 20.6468 20.8961C20.4133 21.4135 20.0721 21.875 19.646 22.25Z" fill="white" fill-opacity="0.5"/>
</svg>
