<svg width="25" height="25" viewBox="0 0 25 25" fill="none" xmlns="http://www.w3.org/2000/svg">
<path fill-rule="evenodd" clip-rule="evenodd" d="M15.524 22.25C16.777 22.25 17.852 22.184 18.751 21.985C19.661 21.782 20.449 21.43 21.065 20.815C21.68 20.199 22.032 19.411 22.235 18.501C22.435 17.602 22.5 16.527 22.5 15.274V12.25C22.5 11.7196 22.2893 11.2109 21.9142 10.8358C21.5391 10.4607 21.0304 10.25 20.5 10.25H12.5C11.9696 10.25 11.4609 10.4607 11.0858 10.8358C10.7107 11.2109 10.5 11.7196 10.5 12.25V20.25C10.5 20.7804 10.7107 21.2891 11.0858 21.6642C11.4609 22.0393 11.9696 22.25 12.5 22.25H15.524ZM2.5 15.274C2.5 16.527 2.566 17.602 2.766 18.501C2.968 19.411 3.32 20.199 3.936 20.815C4.551 21.43 5.339 21.782 6.249 21.985C6.336 22.004 6.424 22.022 6.512 22.039C7.596 22.249 8.5 21.331 8.5 20.226V12.25C8.5 11.7196 8.28929 11.2109 7.91421 10.8358C7.53914 10.4607 7.03043 10.25 6.5 10.25H4.5C3.96957 10.25 3.46086 10.4607 3.08579 10.8358C2.71071 11.2109 2.5 11.7196 2.5 12.25V15.274ZM9.476 2.25C8.223 2.25 7.148 2.316 6.249 2.516C5.339 2.718 4.551 3.07 3.935 3.686C3.32 4.301 2.968 5.089 2.765 5.999C2.749 6.074 2.733 6.149 2.719 6.224C2.504 7.323 3.439 8.25 4.559 8.25H20.476C21.581 8.25 22.499 7.346 22.289 6.262C22.2719 6.17409 22.2535 6.08641 22.234 5.999C22.032 5.089 21.68 4.301 21.064 3.685C20.449 3.07 19.661 2.718 18.751 2.515C17.852 2.315 16.777 2.25 15.524 2.25H9.476Z" fill="white" fill-opacity="0.5"/>
</svg>
