<svg width="84" height="86" viewBox="0 0 84 86" fill="none" xmlns="http://www.w3.org/2000/svg">
<path d="M82.9427 39.64L77.6093 34.3067C77.4856 34.1829 77.3386 34.0846 77.1768 34.0176C77.0151 33.9506 76.8417 33.9161 76.6666 33.9161C76.4915 33.9161 76.3182 33.9506 76.1564 34.0176C75.9947 34.0846 75.8477 34.1829 75.7239 34.3067L70.3906 39.64C70.2667 39.7638 70.1685 39.9108 70.1015 40.0725C70.0345 40.2343 70 40.4076 70 40.5827V53.916C70 54.0912 70.0344 54.2646 70.1014 54.4263C70.1684 54.5881 70.2666 54.7351 70.3904 54.859C70.5142 54.9828 70.6612 55.081 70.823 55.148C70.9848 55.215 71.1582 55.2494 71.3333 55.2494H82C82.1751 55.2494 82.3485 55.215 82.5103 55.148C82.6721 55.081 82.8191 54.9828 82.9429 54.859C83.0667 54.7351 83.1649 54.5881 83.2319 54.4263C83.2989 54.2646 83.3334 54.0912 83.3333 53.916V40.5827C83.3333 40.4076 83.2989 40.2342 83.2318 40.0725C83.1648 39.9107 83.0665 39.7638 82.9427 39.64Z" fill="white"/>
<path d="M59.3333 23.2494H19.3333C19.1582 23.2493 18.9848 23.2838 18.823 23.3508C18.6612 23.4178 18.5142 23.516 18.3904 23.6398C18.2666 23.7636 18.1684 23.9106 18.1014 24.0724C18.0344 24.2342 18 24.4076 18 24.5827V44.5827C17.9999 44.8365 18.0723 45.085 18.2086 45.2991C18.345 45.5131 18.5396 45.6838 18.7695 45.7911L38.7695 55.1244C38.9461 55.2067 39.1385 55.2494 39.3333 55.2494C39.5281 55.2494 39.7206 55.2067 39.8971 55.1244L59.8971 45.7911C60.1271 45.6838 60.3217 45.5131 60.458 45.2991C60.5943 45.085 60.6667 44.8365 60.6667 44.5827V24.5827C60.6667 24.4076 60.6323 24.2342 60.5653 24.0724C60.4983 23.9106 60.4001 23.7636 60.2762 23.6398C60.1524 23.516 60.0054 23.4178 59.8436 23.3508C59.6818 23.2838 59.5084 23.2493 59.3333 23.2494Z" fill="white"/>
<path d="M59.3333 23.2494H19.3333C19.1582 23.2493 18.9848 23.2838 18.823 23.3508C18.6612 23.4178 18.5142 23.516 18.3904 23.6398C18.2666 23.7636 18.1684 23.9106 18.1014 24.0724C18.0344 24.2342 18 24.4076 18 24.5827V37.4324L38.7695 47.1244C38.9461 47.2067 39.1385 47.2494 39.3333 47.2494C39.5281 47.2494 39.7206 47.2067 39.8971 47.1244L60.6667 37.4323V24.5827C60.6667 24.4076 60.6323 24.2342 60.5653 24.0724C60.4983 23.9106 60.4001 23.7636 60.2762 23.6398C60.1524 23.516 60.0054 23.4178 59.8436 23.3508C59.6818 23.2838 59.5084 23.2493 59.3333 23.2494Z" fill="white"/>
<path d="M77.2279 18.0397L39.8946 0.706418C39.7186 0.625351 39.5271 0.583374 39.3334 0.583374C39.1396 0.583374 38.9481 0.625351 38.7722 0.706418L1.43883 18.0397C1.2082 18.1468 1.01298 18.3175 0.876175 18.5319C0.739372 18.7462 0.666687 18.9951 0.666687 19.2494C0.666687 19.5036 0.739372 19.7526 0.876175 19.9669C1.01298 20.1812 1.2082 20.352 1.43883 20.459L38.7722 37.7924C38.948 37.8738 39.1395 37.9161 39.3334 37.9161C39.5272 37.9161 39.7187 37.8738 39.8946 37.7924L77.2279 20.459C77.4585 20.352 77.6537 20.1812 77.7905 19.9669C77.9273 19.7526 78 19.5036 78 19.2494C78 18.9951 77.9273 18.7462 77.7905 18.5319C77.6537 18.3175 77.4585 18.1468 77.2279 18.0397Z" fill="white"/>
<path d="M76.6667 31.2494C76.4916 31.2495 76.3182 31.215 76.1564 31.148C75.9946 31.081 75.8476 30.9828 75.7238 30.859C75.5999 30.7352 75.5017 30.5882 75.4347 30.4264C75.3677 30.2646 75.3333 30.0912 75.3333 29.9161V20.5827H39.3333C38.9797 20.5827 38.6406 20.4423 38.3905 20.1922C38.1405 19.9422 38 19.603 38 19.2494C38 18.8958 38.1405 18.5566 38.3905 18.3066C38.6406 18.0566 38.9797 17.9161 39.3333 17.9161H76.6667C76.8418 17.916 77.0152 17.9505 77.177 18.0175C77.3388 18.0845 77.4858 18.1827 77.6096 18.3065C77.7334 18.4303 77.8316 18.5773 77.8986 18.7391C77.9656 18.9009 78 19.0743 78 19.2494V29.9161C78 30.0912 77.9656 30.2646 77.8986 30.4264C77.8316 30.5882 77.7334 30.7352 77.6096 30.859C77.4858 30.9828 77.3388 31.081 77.177 31.148C77.0152 31.215 76.8418 31.2495 76.6667 31.2494Z" fill="white"/>
<path d="M76.6666 39.2494C79.6122 39.2494 82 36.8616 82 33.916C82 30.9705 79.6122 28.5827 76.6666 28.5827C73.7211 28.5827 71.3333 30.9705 71.3333 33.916C71.3333 36.8616 73.7211 39.2494 76.6666 39.2494Z" fill="white"/>
<path d="M65.6973 80.5358C63.9115 80.0489 62 75.6647 62 69.916C62 64.1673 63.9115 59.7832 65.6973 59.2963C66.0254 59.2067 66.3069 58.9951 66.4842 58.7049C66.6615 58.4146 66.7212 58.0676 66.6511 57.7348C66.581 57.402 66.3864 57.1085 66.1071 56.9145C65.8278 56.7204 65.4849 56.6404 65.1485 56.6908L39.3333 60.5684L13.5098 56.6895L12.8561 56.5957C12.7934 56.5869 12.73 56.5825 12.6667 56.5827C8.86588 56.5827 6 62.3145 6 69.916C6 77.5176 8.86588 83.2494 12.6667 83.2494C12.73 83.2496 12.7934 83.2452 12.8561 83.2364L39.3333 79.2637L65.1484 83.1414C65.4848 83.1918 65.8277 83.1118 66.107 82.9177C66.3863 82.7236 66.5809 82.4302 66.651 82.0973C66.7212 81.7645 66.6615 81.4175 66.4842 81.1273C66.3069 80.837 66.0254 80.6254 65.6973 80.5358Z" fill="white"/>
<path d="M44.6666 57.9161H34C33.293 57.9169 32.6152 58.1981 32.1153 58.698C31.6153 59.1979 31.3341 59.8757 31.3333 60.5827V84.5827C31.3333 84.8007 31.3868 85.0152 31.4889 85.2077C31.5911 85.4002 31.7388 85.5648 31.9193 85.6869C32.0997 85.8091 32.3073 85.8852 32.524 85.9086C32.7407 85.932 32.9597 85.9019 33.1621 85.821L39.3333 83.3523L45.5045 85.821C45.7069 85.9019 45.926 85.932 46.1426 85.9086C46.3593 85.8852 46.5669 85.8091 46.7474 85.6869C46.9278 85.5648 47.0756 85.4002 47.1777 85.2077C47.2798 85.0152 47.3333 84.8007 47.3333 84.5827V60.5827C47.3325 59.8757 47.0513 59.1979 46.5514 58.698C46.0514 58.1981 45.3736 57.9169 44.6666 57.9161Z" fill="white"/>
<path d="M66 56.5827C65.9366 56.5825 65.8733 56.5869 65.8105 56.5957L65.1569 56.6895C65.1024 56.6975 65.0485 56.7088 64.9954 56.7233C61.6614 57.6335 59.3333 63.058 59.3333 69.916C59.3333 76.7741 61.6614 82.1986 64.9954 83.1088C65.0485 83.1233 65.1024 83.1346 65.1569 83.1426L65.8105 83.2364C65.8733 83.2452 65.9366 83.2496 66 83.2494C69.8008 83.2494 72.6666 77.5176 72.6666 69.916C72.6666 62.3145 69.8008 56.5827 66 56.5827Z" fill="white"/>
<path d="M63.3333 68.5827H59.3645C59.3447 69.0207 59.3333 69.4648 59.3333 69.9161C59.3333 76.7741 61.6614 82.1986 64.9954 83.1088C65.0485 83.1233 65.1024 83.1346 65.1569 83.1426L65.8105 83.2364C65.8733 83.2452 65.9366 83.2496 66 83.2494C66.4558 83.2477 66.9075 83.1636 67.3333 83.001V72.5827C67.3322 71.5222 66.9104 70.5055 66.1605 69.7556C65.4106 69.0057 64.3938 68.5839 63.3333 68.5827Z" fill="white"/>
</svg>
