<svg width="24" height="25" viewBox="0 0 24 25" fill="none" xmlns="http://www.w3.org/2000/svg">
<path fill-rule="evenodd" clip-rule="evenodd" d="M17.293 14.543C17.1108 14.7316 17.01 14.9842 17.0123 15.2464C17.0146 15.5086 17.1198 15.7594 17.3052 15.9448C17.4906 16.1302 17.7414 16.2354 18.0036 16.2377C18.2658 16.2399 18.5184 16.1391 18.707 15.957L21.62 13.044L21.664 12.998C21.77 12.9043 21.8549 12.7892 21.9131 12.6603C21.9712 12.5313 22.0013 12.3915 22.0013 12.25C22.0013 12.1085 21.9712 11.9687 21.9131 11.8397C21.8549 11.7108 21.77 11.5956 21.664 11.502C21.6498 11.4862 21.6351 11.4709 21.62 11.456L18.707 8.54299C18.6148 8.44748 18.5044 8.3713 18.3824 8.31889C18.2604 8.26648 18.1292 8.23889 17.9964 8.23774C17.8636 8.23659 17.7319 8.26189 17.609 8.31217C17.4862 8.36245 17.3745 8.4367 17.2806 8.53059C17.1867 8.62449 17.1125 8.73614 17.0622 8.85904C17.0119 8.98193 16.9866 9.11361 16.9877 9.24639C16.9889 9.37917 17.0165 9.51039 17.0689 9.63239C17.1213 9.7544 17.1975 9.86474 17.293 9.95699L18.586 11.25H13C12.7348 11.25 12.4804 11.3553 12.2929 11.5429C12.1054 11.7304 12 11.9848 12 12.25C12 12.5152 12.1054 12.7696 12.2929 12.9571C12.4804 13.1446 12.7348 13.25 13 13.25H18.586L17.293 14.543Z" fill="white" fill-opacity="0.75"/>
<path fill-rule="evenodd" clip-rule="evenodd" d="M5 2.25C4.20435 2.25 3.44129 2.56607 2.87868 3.12868C2.31607 3.69129 2 4.45435 2 5.25V19.25C2 20.0456 2.31607 20.8087 2.87868 21.3713C3.44129 21.9339 4.20435 22.25 5 22.25H14.5C15.163 22.25 15.7989 21.9866 16.2678 21.5178C16.7366 21.0489 17 20.413 17 19.75V16.983C16.5406 16.7176 16.2054 16.2806 16.0679 15.7682C15.9305 15.2557 16.0021 14.7097 16.267 14.25H13C12.4696 14.25 11.9609 14.0393 11.5858 13.6642C11.2107 13.2891 11 12.7804 11 12.25C11 11.7196 11.2107 11.2109 11.5858 10.8358C11.9609 10.4607 12.4696 10.25 13 10.25H16.267C16.1356 10.0224 16.0503 9.77122 16.016 9.51069C15.9817 9.25015 15.9991 8.98541 16.0671 8.7316C16.1352 8.47779 16.2526 8.23988 16.4127 8.03147C16.5728 7.82307 16.7723 7.64824 17 7.517V4.75C17 4.08696 16.7366 3.45107 16.2678 2.98223C15.7989 2.51339 15.163 2.25 14.5 2.25H5Z" fill="white" fill-opacity="0.75"/>
</svg>
