<svg width="24" height="25" viewBox="0 0 24 25" fill="none" xmlns="http://www.w3.org/2000/svg">
<path fill-rule="evenodd" clip-rule="evenodd" d="M14 22.25H5C4.20435 22.25 3.44129 21.9339 2.87868 21.3713C2.31607 20.8087 2 20.0456 2 19.25V5.25C2 4.45435 2.31607 3.69129 2.87868 3.12868C3.44129 2.56607 4.20435 2.25 5 2.25H20C20.7956 2.25 21.5587 2.56607 22.1213 3.12868C22.6839 3.69129 23 4.45435 23 5.25V19.25C23 20.0456 22.6839 20.8087 22.1213 21.3713C21.5587 21.9339 20.7956 22.25 20 22.25H14ZM5.17 20.25C5.06 19.937 5 19.6 5 19.25V5.25C5 4.9 5.06 4.563 5.17 4.25H5C4.73478 4.25 4.48043 4.35536 4.29289 4.54289C4.10536 4.73043 4 4.98478 4 5.25V19.25C4 19.5152 4.10536 19.7696 4.29289 19.9571C4.48043 20.1446 4.73478 20.25 5 20.25H5.17ZM9 8.265C8.99974 8.13368 9.02534 8.00359 9.07535 7.88216C9.12537 7.76074 9.19881 7.65035 9.29148 7.55731C9.38415 7.46426 9.49424 7.39038 9.61547 7.33989C9.73669 7.28939 9.86668 7.26326 9.998 7.263L17.998 7.25C18.2632 7.24947 18.5178 7.35432 18.7057 7.54148C18.8936 7.72864 18.9995 7.98278 19 8.248C19.0005 8.51322 18.8957 8.76778 18.7085 8.95569C18.5214 9.1436 18.2672 9.24947 18.002 9.25L10.002 9.263C9.87068 9.26326 9.74059 9.23766 9.61916 9.18764C9.49774 9.13763 9.38735 9.06419 9.29431 8.97152C9.20126 8.87885 9.12738 8.76876 9.07689 8.64753C9.02639 8.52631 9.00026 8.39632 9 8.265ZM9 12.277C8.99973 12.012 9.1047 11.7576 9.29183 11.57C9.47896 11.3823 9.73296 11.2765 9.998 11.276L17.998 11.263C18.2632 11.2625 18.5178 11.3673 18.7057 11.5545C18.8936 11.7416 18.9995 11.9958 19 12.261C19.0005 12.5262 18.8957 12.7808 18.7085 12.9687C18.5214 13.1566 18.2672 13.2625 18.002 13.263L10.002 13.276C9.87068 13.2763 9.74059 13.2507 9.61916 13.2006C9.49774 13.1506 9.38735 13.0772 9.29431 12.9845C9.20126 12.8918 9.12738 12.7818 9.07689 12.6605C9.02639 12.5393 9.00026 12.4083 9 12.277ZM9 16.277C8.99973 16.012 9.1047 15.7576 9.29183 15.57C9.47896 15.3823 9.73296 15.2765 9.998 15.276L17.998 15.263C18.2632 15.2625 18.5178 15.3673 18.7057 15.5545C18.8936 15.7416 18.9995 15.9958 19 16.261C19.0005 16.5262 18.8957 16.7808 18.7085 16.9687C18.5214 17.1566 18.2672 17.2625 18.002 17.263L10.002 17.276C9.87068 17.2763 9.74059 17.2507 9.61916 17.2006C9.49774 17.1506 9.38735 17.0772 9.29431 16.9845C9.20126 16.8918 9.12738 16.7818 9.07689 16.6605C9.02639 16.5393 9.00026 16.4083 9 16.277Z" fill="white"/>
</svg>
