<svg width="24" height="25" viewBox="0 0 24 25" fill="none" xmlns="http://www.w3.org/2000/svg">
<path fill-rule="evenodd" clip-rule="evenodd" d="M20.774 8.35C22.384 6.734 22.315 4.612 21.113 3.312C20.8105 2.98494 20.4452 2.72231 20.0388 2.53982C19.6324 2.35734 19.1934 2.25876 18.748 2.25C17.799 2.228 16.817 2.59 15.91 3.349C15.8867 3.3683 15.8644 3.38865 15.843 3.41L2.874 16.431C2.31368 16.9938 1.99937 17.7558 2 18.55V20.243C2 21.344 2.892 22.25 4.004 22.25H5.683C6.07789 22.2499 6.46887 22.1719 6.83353 22.0203C7.19819 21.8688 7.52934 21.6468 7.808 21.367L20.774 8.35ZM17.207 6.043C17.1148 5.94749 17.0044 5.87131 16.8824 5.8189C16.7604 5.76649 16.6292 5.7389 16.4964 5.73775C16.3636 5.73659 16.2319 5.7619 16.109 5.81218C15.9862 5.86246 15.8745 5.93671 15.7806 6.0306C15.6867 6.1245 15.6125 6.23615 15.5622 6.35905C15.5119 6.48194 15.4866 6.61362 15.4878 6.7464C15.4889 6.87918 15.5165 7.0104 15.5689 7.1324C15.6213 7.25441 15.6975 7.36475 15.793 7.457L16.793 8.457C16.8852 8.55251 16.9956 8.62869 17.1176 8.6811C17.2396 8.73351 17.3708 8.7611 17.5036 8.76225C17.6364 8.7634 17.7681 8.7381 17.891 8.68782C18.0139 8.63754 18.1255 8.56329 18.2194 8.46939C18.3133 8.3755 18.3875 8.26385 18.4378 8.14095C18.4881 8.01806 18.5134 7.88638 18.5123 7.7536C18.5111 7.62082 18.4835 7.4896 18.4311 7.36759C18.3787 7.24559 18.3025 7.13525 18.207 7.043L17.207 6.043Z" fill="white" fill-opacity="0.5"/>
</svg>
